<?xml version="1.0" encoding="UTF-8" standalone="no"?>
<svg
   id="Content"
   viewBox="0 0 6593.7979 1410.27"
   version="1.1"
   sodipodi:docname="polkadot.svg"
   width="6593.7979"
   height="1410.27"
   inkscape:version="1.2.2 (b0a8486541, 2022-12-01)"
   xmlns:inkscape="http://www.inkscape.org/namespaces/inkscape"
   xmlns:sodipodi="http://sodipodi.sourceforge.net/DTD/sodipodi-0.dtd"
   xmlns="http://www.w3.org/2000/svg"
   xmlns:svg="http://www.w3.org/2000/svg">
  <sodipodi:namedview
     id="namedview29"
     pagecolor="#ffffff"
     bordercolor="#666666"
     borderopacity="1.0"
     inkscape:showpageshadow="2"
     inkscape:pageopacity="0.0"
     inkscape:pagecheckerboard="0"
     inkscape:deskcolor="#d1d1d1"
     showgrid="false"
     inkscape:zoom="0.21052082"
     inkscape:cx="3301.3362"
     inkscape:cy="710.14354"
     inkscape:window-width="1674"
     inkscape:window-height="752"
     inkscape:window-x="0"
     inkscape:window-y="114"
     inkscape:window-maximized="0"
     inkscape:current-layer="Content" />
  <defs
     id="defs4">
    <style
       id="style2">.cls-1{fill:#fff;}</style>
  </defs>
  <path
     class="cls-1"
     d="m 2047.7677,210.36 c -77.17,0 -151.58,9.65 -181.9,17.92 -44.09,12.4 -55.12,31.69 -63.39,71.65 l -175,807.52 c -2.76,16.54 -5.52,30.32 -5.52,44.1 0,40 26.19,66.14 68.9,66.14 46.86,0 66.15,-30.31 75.8,-77.16 l 49.6,-230.13 c 34.45,4.13 79.93,8.26 144.7,8.26 285.25,0 463,-154.33 463,-387.22 0.01,-203.95 -141.93,-321.08 -376.19,-321.08 z m -93.7,576 c -44.1,0 -78.55,-1.37 -110.25,-5.51 l 92.33,-428.56 c 28.94,-4.14 71.66,-9.65 115.76,-9.65 151.58,0 228.75,71.66 228.75,190.17 0,151.59 -110.24,253.56 -326.63,253.56 z"
     id="path6" />
  <path
     class="cls-1"
     d="m 6537.3077,951.74 c -23.42,0 -38.58,13.78 -67.52,45.47 -51,52.37 -82.68,81.3 -122.64,81.3 -35.83,0 -55.13,-28.93 -55.13,-75.79 0,-26.18 5.52,-57.87 12.41,-92.32 l 51,-239.78 h 153 c 48.23,0 77.17,-27.56 77.17,-77.17 0,-27.56 -17.91,-48.23 -59.25,-48.23 h -143.38 l 24.81,-111.62 c 2.75,-16.53 5.51,-31.69 5.51,-45.47 0,-38.59 -26.18,-66.15 -68.9,-66.15 -45.48,0 -66.15,30.32 -75.79,77.17 l -31.7,146.07 h -64.76 c -49.61,0 -78.55,27.56 -78.55,77.17 0,27.56 19.29,48.23 60.63,48.23 h 56.5 l -51,237 c -5.51,26.18 -12.4,68.9 -12.4,113 0,111.62 57.88,192.92 181.9,192.92 71.66,0 135.05,-35.83 183.28,-78.55 46.85,-41.34 81.3,-92.32 81.3,-125.4 0.01,-31.67 -24.77,-57.85 -56.49,-57.85 z"
     id="path8" />
  <path
     class="cls-1"
     d="m 3367.8877,291.67 c 0,-40 -27.56,-66.15 -70.28,-66.15 -45.47,0 -66.14,30.32 -75.79,77.17 l -172.25,800.63 c -4.14,16.54 -6.89,30.32 -6.89,44.1 0,40 27.56,66.14 68.9,66.14 46.85,0 67.52,-30.32 77.17,-77.17 l 172.28,-800.63 c 2.73,-16.53 6.86,-30.31 6.86,-44.09 z"
     id="path10" />
  <path
     class="cls-1"
     d="m 5827.6277,531.44 c -220.48,0 -370.69,219.11 -370.69,427.19 0,3.9 0.1,7.75 0.22,11.59 -34.58,52.5 -78.76,106.92 -109.08,106.92 -22.05,0 -30.32,-20.67 -30.32,-52.37 0,-38.58 11,-103.35 23.43,-159.85 l 114.38,-529.16 c 2.75,-16.53 5.51,-30.31 5.51,-44.09 0,-40 -26.18,-66.15 -68.9,-66.15 -46.85,0 -66.15,30.32 -75.79,77.17 l -62,286.63 c -33.09,-34.45 -81.36,-57.88 -154.36,-57.88 -146.43,0 -293.7,112.73 -351.1,285.6 -63.21,163.42 -119.7,260.1 -164.27,260.1 -16.53,0 -26.18,-13.78 -26.18,-37.21 0,-68.9 38.58,-237 55.12,-318.32 5.51,-30.32 8.27,-42.72 8.27,-60.64 0,-60.63 -100.6,-132.29 -231.51,-132.29 -151.37,0 -288.48,95.86 -357.24,238.35 -102.09,180.42 -195.79,310.14 -242.18,310.14 -20.67,0 -27.56,-26.19 -33.07,-51 l -34.45,-190.17 210.84,-172.25 c 19.29,-16.54 44.09,-40 44.09,-70.28 0,-37.2 -24.8,-62 -62,-62 -27.56,0 -51,16.54 -74.41,35.83 l -316.91,261.79 106.11,-493.33 c 2.76,-16.53 6.89,-30.31 6.89,-44.09 0,-40 -27.56,-66.15 -70.28,-66.15 -45.47,0 -66.14,30.32 -75.79,77.17 l -172.25,800.63 c -4.13,16.54 -6.89,30.32 -6.89,44.1 0,40 27.56,66.14 68.9,66.14 46.85,0 67.52,-30.32 77.17,-77.17 l 22.05,-103.35 129.53,-104.73 31.7,159.85 c 12.4,63.39 45.47,125.4 130.91,125.4 85,0 151.86,-77.63 218.85,-182.52 20.33,109.86 98.48,182.52 206.95,182.52 108.86,0 183.27,-64.77 231.5,-151.58 v 2.75 c 0,89.58 45.48,148.83 125.4,148.83 72.26,0 132.29,-43.57 185.91,-136.21 30.41,80.73 98.38,136.21 193,136.21 111.62,0 191.54,-67.52 242.53,-161.23 v 8.27 c 0,99.22 49.61,153 130.91,153 71.78,0 132.82,-41.66 184.86,-109.53 39.61,67.8 110.59,109.53 206.5,109.53 220.48,0 370.68,-219.1 370.68,-428.56 -0.01,-147.49 -89.58,-253.6 -242.54,-253.6 z m -1373.87,279.73 c -40,172.25 -125.4,270.09 -221.86,270.09 -64.77,0 -100.6,-49.61 -100.6,-124 0,-146.07 106.11,-303.17 248,-303.17 42.71,0 75.79,12.41 104.73,30.32 z m 767.54,-73 c -44.09,202.57 -144.69,343.13 -254.93,343.13 -60.63,0 -96.46,-46.85 -96.46,-124 0,-147.45 102,-300.41 238.4,-300.41 52.36,0 92.32,17.91 121.26,41.34 z m 494.73,343.1 c -79.92,0 -113,-57.88 -113,-130.91 0,-133.67 92.32,-286.63 208.08,-286.63 79.92,0 113,57.88 113,130.91 -0.02,135.05 -92.34,286.63 -208.08,286.63 z"
     id="path12" />
  <path
     class="cls-1"
     d="m 2767.0877,531.44 c -220.49,0 -370.69,219.11 -370.69,427.19 0,148.82 89.57,254.93 242.53,254.93 220.48,0 370.69,-219.1 370.69,-428.56 0,-147.45 -89.59,-253.56 -242.53,-253.56 z m -111.62,549.83 c -79.93,0 -113,-57.88 -113,-130.91 0,-133.67 92.33,-286.63 208.08,-286.63 79.93,0 113,57.88 113,130.91 0,135.05 -92.33,286.63 -208.08,286.63 z"
     id="path14" />
  <ellipse
     class="cls-1"
     cx="663.02771"
     cy="147.95"
     rx="254.27"
     ry="147.95"
     id="ellipse16" />
  <ellipse
     class="cls-1"
     cx="663.02771"
     cy="1262.3201"
     rx="254.27"
     ry="147.95"
     id="ellipse18" />
  <ellipse
     class="cls-1"
     cx="-279.15125"
     cy="369.59158"
     rx="254.27"
     ry="147.95"
     transform="rotate(-60)"
     id="ellipse20" />
  <ellipse
     class="cls-1"
     cx="-279.1553"
     cy="1483.9517"
     rx="254.27"
     ry="147.95"
     transform="rotate(-60)"
     id="ellipse22" />
  <ellipse
     class="cls-1"
     cx="-335.54477"
     cy="942.1803"
     rx="147.95"
     ry="254.27"
     transform="rotate(-30)"
     id="ellipse24" />
  <ellipse
     class="cls-1"
     cx="778.80475"
     cy="942.18341"
     rx="147.95"
     ry="254.27"
     transform="rotate(-30)"
     id="ellipse26" />
</svg>
